<svg width="24" height="24" fill="none" xmlns="http://www.w3.org/2000/svg"><path d="M12 3a9 9 0 000 18 1 1 0 110 2C5.925 23 1 18.075 1 12S5.925 1 12 1s11 4.925 11 11c0 1.168-.125 2.59-.651 3.756-.269.595-.66 1.164-1.233 1.585-.584.43-1.295.659-2.116.659-.842 0-1.56-.258-2.14-.713-.566-.443-.95-1.034-1.214-1.636a5.593 5.593 0 01-.067-.16 5 5 0 11-.484-7.418A1 1 0 0117 8.5V12c0 .946.122 2.035.479 2.85.174.397.383.681.615.863.216.17.498.287.906.287.43 0 .718-.114.931-.27.225-.165.427-.424.595-.797.349-.772.474-1.85.474-2.933a9 9 0 00-9-9zm3 9a3 3 0 10-6 0 3 3 0 006 0z" fill="#000F13"/></svg>