<svg width="32" height="32" fill="none" xmlns="http://www.w3.org/2000/svg"><path fill-rule="evenodd" clip-rule="evenodd" d="M32 16.58h-1.665c-.502 0-.867.12-1.126.307v-.307h-2.462c-.393 0-.856.098-1.074.307v-.307h-4.397v.307c-.35-.252-.94-.307-1.213-.307h-2.9v.307c-.276-.268-.892-.307-1.267-.307H12.65l-.743.802-.695-.802H6.363v5.236h4.757l.766-.814.72.814 2.933.003v-1.232h.288c.39.006.848-.01 1.253-.184v1.413h2.419v-1.364h.116c.15 0 .164.006.164.154v1.21h7.347c.467 0 .954-.119 1.224-.335v.335h2.33c.486 0 .96-.068 1.32-.241V16.58zM1.537 15.357l.346-.833h.776l.346.833h3.023v-.637l.27.64h1.57l.27-.65v.647h7.514l-.003-1.367h.145c.102.003.132.012.132.18v1.187h3.886v-.318c.314.167.801.318 1.443.318h1.635l.35-.833h.776l.342.833h3.15v-.791l.478.791h2.524v-5.232h-2.498v.618l-.35-.618h-2.564v.618l-.322-.618h-3.463c-.58 0-1.09.08-1.5.306v-.306h-2.39v.306c-.263-.232-.62-.306-1.017-.306H7.675l-.586 1.351-.602-1.351h-2.75v.618l-.302-.618H1.089L0 12.613v2.744h1.537z" fill="#006FCF"/><path fill-rule="evenodd" clip-rule="evenodd" d="M15.867 19.814c.787 0 1.567-.215 1.567-1.258 0-1.039-.802-1.236-1.516-1.236h-2.874L11.9 18.55l-1.107-1.23H7.176v3.753h3.562l1.151-1.242 1.108 1.242h1.748v-1.259h1.122zm-1.122-.762h1.162c.346 0 .561-.17.561-.495 0-.329-.225-.46-.55-.46h-1.173v.955zm-4.462 1.239H8.072v-.747h1.974v-.765H8.072v-.683h2.255l.983 1.094-1.027 1.1zm3.566.44l-1.38-1.528 1.38-1.48v3.009zm7.431-1.087a.978.978 0 00-.44-.315c.236-.094.637-.4.637-.998 0-.428-.178-.663-.462-.834-.296-.157-.627-.177-1.082-.177h-2.077v3.753h.904v-1.37h.96c.33 0 .53.031.66.166.151.157.149.443.147.664v.54h.902v-.744c-.003-.33-.022-.502-.149-.685zm-.984-.782c-.12.071-.269.077-.444.077H18.76v-.843h1.107c.16 0 .32.004.43.068.116.061.186.177.186.338 0 .16-.07.29-.187.36z" fill="#fff"/><path d="M28.412 19.094c.175.18.27.409.27.795 0 .807-.507 1.184-1.414 1.184h-1.752v-.805h1.745c.17 0 .292-.022.368-.093a.332.332 0 00.106-.245.322.322 0 00-.11-.248c-.069-.057-.163-.083-.32-.083a27.264 27.264 0 00-.168-.005c-.807-.022-1.727-.047-1.727-1.156 0-.545.343-1.118 1.286-1.118H28.5v.8h-1.65c-.163 0-.27.005-.36.067-.098.06-.135.15-.135.27a.29.29 0 00.197.28c.095.032.197.042.35.042l.484.013c.488.012.824.096 1.027.302zM32 18.119h-1.64c-.163 0-.272.006-.363.068-.095.06-.132.15-.132.27 0 .141.08.238.197.28.095.032.197.042.347.042l.487.013c.492.012.82.096 1.02.302a.35.35 0 01.072.078l.006.007.004.005.002.003v1.406c-.218.318-.644.48-1.22.48h-1.737v-.805h1.73c.171 0 .291-.022.364-.093a.33.33 0 00.106-.245.308.308 0 00-.11-.248c-.065-.057-.16-.083-.317-.083l-.168-.005c-.81-.022-1.73-.047-1.73-1.156 0-.545.347-1.118 1.29-1.118H32v.799zm-10.024-.799h3.002v.776H22.87v.683h2.055v.765h-2.054v.747l2.106.003v.779h-3.002V17.32z" fill="#fff"/><path fill-rule="evenodd" clip-rule="evenodd" d="M2.886 12.996l-.616-1.495-.612 1.495h1.228zm13.561-.596c-.123.075-.27.078-.444.078H14.91v-.833h1.107c.157 0 .32.007.427.067.117.055.189.171.189.332 0 .164-.069.296-.186.356zm7.795.596l-.622-1.495-.62 1.495h1.242zm-14.53 1.619H8.79l-.003-2.938-1.304 2.938h-.79l-1.308-2.941v2.94H3.556l-.346-.836H1.338l-.35.837H.013l1.61-3.752H2.96l1.53 3.552v-3.552h1.467l1.177 2.545 1.082-2.545h1.497v3.752zm3.675 0h-3.004v-3.752h3.004v.782h-2.105v.676h2.055v.769h-2.055v.749h2.105v.776zm4.237-2.741c0 .598-.4.907-.634 1 .197.074.365.206.445.316.127.186.149.353.149.688v.737h-.907l-.004-.473c0-.226.022-.55-.142-.731-.131-.132-.332-.16-.655-.16h-.966v1.364h-.9v-3.752h2.07c.459 0 .798.012 1.089.18.284.168.455.412.455.83zm1.439 2.74h-.918v-3.75h.918v3.75zm10.647 0h-1.275L26.731 11.8v2.816h-1.832l-.35-.837H22.68l-.34.837h-1.052c-.437 0-.99-.097-1.304-.415-.316-.319-.48-.75-.48-1.432 0-.557.098-1.065.484-1.467.291-.3.747-.438 1.366-.438h.871v.804h-.852c-.329 0-.514.049-.693.222-.153.158-.258.457-.258.85 0 .402.08.692.247.881.139.149.39.194.627.194h.404l1.268-2.95h1.347l1.523 3.548v-3.549h1.37l1.58 2.613v-2.613h.922v3.752z" fill="#fff"/></svg>