<svg width="32" height="32" fill="none" xmlns="http://www.w3.org/2000/svg"><path d="M20.325 8.223h-8.653v15.519h8.653V8.222z" fill="#007AD0"/><path d="M12.223 15.983A9.836 9.836 0 0116 8.223a9.9 9.9 0 00-14.493 2.524 9.856 9.856 0 004.06 14.113A9.906 9.906 0 0016 23.743a9.856 9.856 0 01-3.777-7.76z" fill="#0066BA"/><path d="M31.058 22.099v-.319h.128v-.065h-.327v.065h.129v.319h.07zm.635 0v-.384h-.1l-.116.264-.115-.264h-.1v.384h.07v-.29l.108.25h.074l.108-.25v.29h.07zM32 15.983a9.855 9.855 0 01-1.507 5.236 9.882 9.882 0 01-4.06 3.641A9.906 9.906 0 0116 23.743a9.875 9.875 0 003.777-7.76A9.855 9.855 0 0016 8.223a9.9 9.9 0 0114.493 2.524A9.855 9.855 0 0132 15.983z" fill="#00A2E5"/></svg>