<svg class="icon" viewBox="0 0 40 40" fill="#000F13"><rect width="40" height="40" rx="4" fill-opacity=".2"/><path d="M29 14.819C29 13.32 27.679 12 26.181 12H14.82c-1.5 0-2.82 1.321-2.82 2.819V26.18c0 1.5 1.321 2.82 2.819 2.82h2.51a3.215 3.215 0 003.215-3.215v-2.158c0-.584-.473-1.057-1.057-1.057a1.057 1.057 0 01-1.057-1.057v-.705c0-.584.473-1.057 1.057-1.057s1.057-.473 1.057-1.057v-.088c0-1.938 1.41-3.611 3.171-3.611h.88a1.41 1.41 0 010 2.819h-.88c-.264 0-.529.264-.529.792 0 .633.513 1.145 1.146 1.145h.264a1.41 1.41 0 010 2.819 1.41 1.41 0 00-1.41 1.41v2.025A2.995 2.995 0 0026.181 29C27.68 29 29 27.679 29 26.181V14.82z" fill="#fff"/></svg>