<svg width="20" height="20" fill="none" xmlns="http://www.w3.org/2000/svg"><path d="M10.627.701A.833.833 0 009.333.75v.001l-.005.006-.017.023a24.852 24.852 0 01-.333.431c-.226.288-.542.684-.906 1.118-.74.884-1.632 1.868-2.343 2.437-2.225 1.78-3.646 4.084-3.646 6.9 0 2.508.919 4.507 2.405 5.874 1.475 1.357 3.456 2.043 5.512 2.043 4.08 0 8.333-2.753 8.333-7.916 0-2.423-.551-4.212-1.122-5.41a8.442 8.442 0 00-.796-1.352 5.59 5.59 0 00-.393-.478l-.01-.01-.003-.003-.002-.002c0-.001-.001-.001-.59.588l.589-.59a.834.834 0 00-1.378.32l-.002.006-.02.051c-.021.05-.056.128-.109.228a4.38 4.38 0 01-.546.797 5.07 5.07 0 01-1.487 1.177c.043-.279.075-.586.088-.915.058-1.517-.296-3.512-1.925-5.373zM9.35 3.4c.235-.282.452-.547.638-.78a5.84 5.84 0 01.898 3.39 6.52 6.52 0 01-.225 1.465 5.161 5.161 0 01-.165.501l-.008.02a.01.01 0 000 .002v-.001a.833.833 0 00.964 1.145c1.854-.464 3.04-1.401 3.764-2.246.1-.117.192-.232.274-.343.07.127.143.267.216.42.47.988.96 2.533.96 4.693 0 2.708-1.485 4.613-3.506 5.562.11-.31.173-.64.173-.978 0-1.387-.827-2.428-1.52-3.062a7.167 7.167 0 00-1.396-.994l-.03-.015-.008-.005-.004-.002h-.001l-.374.744.373-.745-.373-.186-.373.186.373.745-.373-.745-.002.001-.003.002-.01.005-.029.015c-.024.013-.057.03-.097.053a7.168 7.168 0 00-1.299.94c-.693.635-1.52 1.676-1.52 3.063 0 .314.05.616.138.902a5.725 5.725 0 01-1.189-.838c-1.118-1.03-1.866-2.572-1.866-4.648 0-2.183 1.08-4.046 3.02-5.599.852-.681 1.836-1.78 2.58-2.667zm1.138 4.595l.762.338-.761-.338zm.199 6.421c.557.511.98 1.137.98 1.834 0 .354-.186.777-.537 1.13-.352.351-.776.537-1.13.537-.371 0-.795-.18-1.136-.513-.338-.33-.53-.75-.53-1.154 0-.697.422-1.323.98-1.834.243-.223.489-.402.686-.532.197.13.444.31.687.532z" fill="#000F13"/></svg>