<svg class="icon" viewBox="0 0 40 40" fill="#000F13"><rect width="40" height="40" rx="4" fill-opacity=".2"/><path d="M20.342 17.442v1.749c0 1.22.989 2.209 2.209 2.209 1.539 0 2.527 1.587 1.283 2.493a5.65 5.65 0 01-3.334 1.07 5.508 5.508 0 01-5.542-5.542 5.508 5.508 0 015.542-5.542c1.188 0 2.296.396 3.246 1.03a.4.4 0 00.558-.077l1.892-2.46a.391.391 0 00-.075-.551C24.458 10.633 22.558 10 20.5 10c-5.225 0-9.5 4.275-9.5 9.5s4.275 9.5 9.5 9.5 9.5-4.275 9.5-9.5a1.98 1.98 0 00-1.98-1.98h-7.6a.08.08 0 01-.078-.078z" fill="#fff"/></svg>