<svg width="32" height="32" fill="none" xmlns="http://www.w3.org/2000/svg"><path d="M20.325 8.238h-8.653v15.55h8.653V8.238z" fill="#7375CF"/><path d="M12.223 16.014A9.871 9.871 0 0116 8.24a9.89 9.89 0 100 15.55 9.872 9.872 0 01-3.777-7.775z" fill="#EB001B"/><path d="M31.058 22.142v-.319h.128v-.065h-.327v.065h.129v.319h.07zm.635 0v-.384h-.1l-.116.264-.115-.264h-.1v.384h.07v-.29l.108.25h.074l.108-.25v.29h.07zM32 16.014a9.888 9.888 0 01-16 7.775 9.89 9.89 0 000-15.55 9.889 9.889 0 0116 7.775z" fill="#00A2E5"/></svg>