<svg class="icon" viewBox="0 0 22 22" fill="#7D8688"><path d="M11 2c-.435 0-.862.03-1.28.09a32.81 32.81 0 00-.49 2.05A36.083 36.083 0 008.756 7h4.488a36.246 36.246 0 00-.473-2.86 32.766 32.766 0 00-.49-2.05A9.075 9.075 0 0011 2zM7.27 3.735c.078-.372.155-.716.229-1.029A9.034 9.034 0 002.936 7H6.74c.145-1.23.338-2.336.53-3.265zM6.563 9h-4.34a9.03 9.03 0 000 4h4.339a32.844 32.844 0 010-4zm.18 6H2.935a9.034 9.034 0 004.563 4.294A38.228 38.228 0 016.742 15zm2.014 0c.133 1.068.303 2.036.473 2.86.179.861.356 1.562.49 2.05a9.083 9.083 0 002.561 0 36.083 36.083 0 00.964-4.91H8.756zm4.678-2a30.949 30.949 0 000-4H8.566a30.94 30.94 0 000 4h4.868zm1.825 2a38.25 38.25 0 01-.758 4.294A9.034 9.034 0 0019.064 15H15.26zm4.518-2a9.033 9.033 0 000-4h-4.339a32.844 32.844 0 010 4h4.339zM14.501 2.706A38.254 38.254 0 0115.258 7h3.806a9.034 9.034 0 00-4.563-4.294zM0 11C0 4.925 4.925 0 11 0s11 4.925 11 11-4.925 11-11 11S0 17.075 0 11z"/></svg>