<svg class="icon" viewBox="0 0 40 40" fill="#000F13"><rect width="40" height="40" rx="4" fill-opacity=".2"/><path d="M30.786 24.664c0-.136-.122-.242-.192-.359-.404-.68-1.18-1.503-2.187-2.4a7.194 7.194 0 01-.81-.773c-.13-.14-.267-.277-.348-.449-.118-.246-.101-.466-.032-.738.092-.267.458-.712 1.099-1.514.272-.331.444-.564.627-.772.125-.142.255-.283.37-.434 1.159-1.529 1.741-2.57 1.683-3.121a.358.358 0 00-.118-.214c-.198-.192-.501-.261-.777-.242l-.023.002c-.202.018-.401.062-.603.062h-3.722a.225.225 0 00-.157.064l-.026.025c-.1.098-.116.246-.167.375-.352.892-.779 1.645-1.205 2.475-.275.445-.55.89-.824 1.246-.275.356-.458.623-.64.802-.17.164-.338.252-.435.404a.282.282 0 01-.058.072.594.594 0 01-.104.066c-.08.04-.232.023-.297-.04-.032-.03-.04-.075-.071-.105l-.225-.22a.211.211 0 01-.026-.03c-.168-.24-.157-.567-.157-.86v-4.007c0-.236-.187-.448-.356-.613l-.01-.01c-.192-.187-.506-.208-.77-.25A7.728 7.728 0 0018.98 13c-1.464 0-2.47.089-2.837.267-.111.055-.223.109-.314.184-.116.095-.319.255-.294.403.015.087.104.044.19.065.396.096.71.264.876.506.06.118.143.228.177.356.025.092.048.211.098.356.091.267.091.534.091.89v1.425c0 .445-.091.712-.091.98 0 .235-.072.401-.151.498a.397.397 0 00-.054.079c-.026.056-.044.102-.06.137-.033.072-.114.176-.193.176-.091 0-.183.089-.366.089a.309.309 0 01-.09-.018 1.44 1.44 0 01-.537-.347c-.156-.15-.28-.332-.41-.506a4.043 4.043 0 01-.336-.554c-.15-.292-.362-.585-.535-.977-.077-.176-.15-.355-.238-.527l-.05-.098a12.27 12.27 0 01-.458-.98c-.183-.445-.366-.801-.549-1.246a1.172 1.172 0 00-.242-.325.111.111 0 00-.078-.032.137.137 0 01-.081-.029.27.27 0 00-.148-.06c-.091 0-.183-.089-.274-.089H8.732c-.366 0-.549.09-.64.178a.302.302 0 00-.092.217v.05c0 .09 0 .179.092.357.457 1.068 1.006 2.137 1.555 3.205.55.98 1.098 1.87 1.464 2.493.458.624.824 1.247 1.282 1.781.22.258.398.474.534.649.207.267.413.54.655.776l.275.267c.183.178.457.445.823.712.366.267.824.535 1.281.802.458.267 1.007.445 1.556.623.516.143.973.23 1.419.21.214-.009.428-.032.642-.032h1.05c.275 0 .458-.09.641-.267.059-.057.1-.135.154-.195a.1.1 0 00.03-.072v-.356c0-.357 0-.624.09-.89.092-.268.092-.446.184-.624.091-.178.183-.267.274-.356l.141-.138a.144.144 0 01.1-.04.186.186 0 00.064-.013c.13-.047.295-.016.442.066.122.068.23.16.34.247.214.167.416.379.56.59.183.267.458.534.824.89.366.357.64.624.824.713l.274.178c.183.089.366.178.64.267.275.089.458.089.641.089l3.112-.089c.274 0 .549-.09.732-.178.183-.09.274-.178.274-.356 0-.228-.16-.427-.18-.654-.003-.02-.003-.04-.003-.059z" fill="#fff"/></svg>