<svg width="74" height="20" fill="none" xmlns="http://www.w3.org/2000/svg"><path d="M15.286 12.571H14V9c0-.457-.257-.714-.714-.714h-3.2c-.457 0-.715.257-.715.714v3.571H4.914L10.857.857c.257-.514.029-.857-.514-.857h-3.4c-.4 0-.657.171-.829.514L.2 12.143c-.143.314-.2.571-.2.886v3.057c0 .457.257.714.714.714h8.657v2.486c0 .457.258.714.715.714h3.2c.457 0 .714-.257.714-.714V16.8h1.286c.457 0 .714-.257.714-.714v-2.8c0-.457-.257-.715-.714-.715z" fill="#245D7B"/><path d="M29.64 4.114C29.64 1.43 28.16 0 25.46 0h-3.251C19.48 0 18 1.429 18 4.114v11.772C18 18.57 19.48 20 22.209 20h3.25c2.7 0 4.18-1.429 4.18-4.114V12.8c0-.286-.174-.457-.464-.457h-2.728c-.32 0-.465.171-.465.457v2.429c0 .771-.406 1.142-1.16 1.142h-1.858c-.755 0-1.162-.371-1.162-1.142V4.857c0-.743.378-1.143 1.162-1.143h1.857c.755 0 1.161.4 1.161 1.143V7.2c0 .286.145.457.465.457h2.728c.29 0 .465-.171.465-.457V4.114zM45.675 20c.348 0 .493-.171.406-.486L41.263.4c-.058-.286-.232-.4-.494-.4h-4.034c-.261 0-.436.114-.494.4l-4.818 19.114c-.087.315.058.486.377.486h2.845c.261 0 .406-.143.464-.4l.9-3.6h5.457l.929 3.6c.058.257.203.4.464.4h2.816zm-5.109-7.314H36.91l1.829-7.772 1.828 7.772zm7.311 3.2c0 2.685 1.45 4.114 4.18 4.114h3.25c2.7 0 4.18-1.429 4.18-4.114V9.37c0-.314-.174-.457-.465-.457H54.32c-.319 0-.464.143-.464.457v2.858c0 .285.145.457.464.457h1.51v2.485c0 .772-.407 1.143-1.161 1.143H52.81c-.755 0-1.161-.371-1.161-1.143V4.83c0-.743.377-1.143 1.16-1.143h1.859c.754 0 1.16.4 1.16 1.143v1.4c0 .285.146.457.465.457h2.729c.29 0 .464-.172.464-.457V4.114c0-2.685-1.48-4.114-4.18-4.114h-3.25c-2.73 0-4.18 1.429-4.18 4.114v11.772zm14.513 0c0 2.685 1.45 4.114 4.18 4.114h3.25c2.73 0 4.18-1.429 4.18-4.114V4.114C74 1.43 72.549 0 69.82 0h-3.25c-2.73 0-4.18 1.429-4.18 4.114v11.772zm4.934.428c-.755 0-1.161-.371-1.161-1.143V4.83c0-.743.406-1.143 1.161-1.143h1.858c.754 0 1.16.4 1.16 1.143v10.34c0 .772-.406 1.143-1.16 1.143h-1.858z" fill="#000F13"/></svg>