<svg width="24" height="24" viewBox="0 0 24 24" fill="none" xmlns="http://www.w3.org/2000/svg">
<path d="M12 3C7.02944 3 3 7.02944 3 12C3 16.9706 7.02944 21 12 21C12.5523 21 13 21.4477 13 22C13 22.5523 12.5523 23 12 23C5.92487 23 1 18.0751 1 12C1 5.92487 5.92487 1 12 1C18.0751 1 23 5.92487 23 12C23 13.1683 22.8752 14.5908 22.3488 15.756C22.08 16.3511 21.6881 16.9204 21.1157 17.3412C20.532 17.7701 19.8206 18 19 18C18.1584 18 17.4395 17.7418 16.8594 17.2869C16.2942 16.8436 15.9097 16.2528 15.6463 15.6508C15.6232 15.598 15.6009 15.5448 15.5794 15.4912C14.6713 16.422 13.4031 17 12 17C9.23858 17 7 14.7614 7 12C7 9.23858 9.23858 7 12 7C13.1689 7 14.244 7.40108 15.0954 8.07312C15.2556 7.73436 15.6004 7.5 16 7.5C16.5523 7.5 17 7.94772 17 8.5V12C17 12.9461 17.1224 14.0348 17.4787 14.8492C17.6528 15.2472 17.862 15.5314 18.0937 15.7131C18.3105 15.8832 18.5916 16 19 16C19.4294 16 19.718 15.8863 19.9312 15.7296C20.1556 15.5647 20.3575 15.3062 20.5262 14.9327C20.8748 14.1609 21 13.0834 21 12C21 7.02944 16.9706 3 12 3ZM15 12C15 10.3431 13.6569 9 12 9C10.3431 9 9 10.3431 9 12C9 13.6569 10.3431 15 12 15C13.6569 15 15 13.6569 15 12Z" fill="#000F13"/>
</svg>
