<svg width="32" height="32" viewBox="0 0 32 32" fill="none" xmlns="http://www.w3.org/2000/svg">
<path fill-rule="evenodd" clip-rule="evenodd" d="M31.9996 16.5804H30.3351C29.8327 16.5804 29.4678 16.7003 29.2094 16.8868V16.5804H26.7473C26.3536 16.5804 25.8914 16.6777 25.6729 16.8868V16.5804H21.2762V16.8868C20.9263 16.6352 20.3359 16.5804 20.0634 16.5804H17.1633V16.8868C16.8865 16.6195 16.2709 16.5804 15.8957 16.5804H12.65L11.9073 17.3818L11.2116 16.5804H6.36328V21.8163H11.1204L11.8857 21.0023L12.6066 21.8163L15.5389 21.8189V20.5872H15.8272C16.2163 20.5932 16.6752 20.5776 17.08 20.4031V21.8162H19.4986V20.4516H19.6153C19.7642 20.4516 19.7788 20.4577 19.7788 20.606V21.8161H27.1262C27.5927 21.8161 28.0802 21.6971 28.3502 21.481V21.8161H30.6808C31.1658 21.8161 31.6394 21.7483 31.9997 21.5747C31.9997 -7.07267 31.9996 28.5749 31.9996 16.5804Z" fill="#006FCF"/>
<path fill-rule="evenodd" clip-rule="evenodd" d="M1.53686 15.3573L1.88337 14.524H2.65912L3.00472 15.3573H6.02839V14.7202L6.29828 15.36H7.86795L8.13784 14.7107V15.3573H15.6522L15.6487 13.9895H15.7941C15.8959 13.993 15.9257 14.0024 15.9257 14.17V15.3573H19.8121V15.0389C20.1256 15.2064 20.6132 15.3573 21.2548 15.3573H22.8898L23.2397 14.524H24.0155L24.3577 15.3573H27.5085V14.5658L27.9856 15.3573H30.5105V10.125H28.0117V10.7429L27.6618 10.125H25.0978V10.7429L24.7765 10.125H21.3131C20.7334 10.125 20.2238 10.2057 19.8121 10.4305V10.125H17.4221V10.4305C17.1602 10.1988 16.8032 10.125 16.4063 10.125H7.67466L7.08879 11.4764L6.48714 10.125H3.73689V10.7429L3.43476 10.125H1.08923L0 12.6127V15.3573H1.53686Z" fill="#006FCF"/>
<path fill-rule="evenodd" clip-rule="evenodd" d="M15.8674 19.8141C16.6536 19.8141 17.4336 19.5989 17.4336 18.5565C17.4336 17.5173 16.6317 17.3203 15.9179 17.3203H13.0439L11.8999 18.5503L10.7933 17.3203H7.17578V21.0728H10.7384L11.8894 19.8306L12.9969 21.0728H14.7451V19.8141H15.8674ZM14.7451 19.0521H15.9074C16.253 19.0521 16.468 18.8811 16.468 18.5566C16.468 18.2284 16.2426 18.0965 15.9179 18.0965H14.7451V19.0521ZM10.2831 20.2908H8.07172V19.5442H10.0463V18.7786H8.07172V18.0964H10.3267L11.3105 19.1899L10.2831 20.2908ZM13.8493 20.7315L12.4684 19.203L13.8493 17.7231V20.7315Z" fill="white"/>
<path fill-rule="evenodd" clip-rule="evenodd" d="M21.2802 19.644C21.2034 19.5347 21.0398 19.4026 20.8396 19.3289C21.0763 19.2352 21.477 18.9296 21.4771 18.3307C21.4771 17.9026 21.2985 17.6684 21.0147 17.4974C20.7195 17.3403 20.3878 17.3203 19.9325 17.3203H17.856V21.0728H18.7597V19.7022H19.7209C20.0491 19.7022 20.2494 19.7344 20.3808 19.8688C20.5313 20.0259 20.5287 20.3124 20.5266 20.5327C20.5264 20.5571 20.5262 20.5808 20.5262 20.6033V21.0728H21.4292V20.3289C21.4255 19.9981 21.4072 19.8272 21.2802 19.644ZM20.2964 18.862C20.1761 18.9331 20.0273 18.9393 19.8523 18.9393H18.7596V18.0965H19.8671C20.0273 18.0965 20.1875 18.0999 20.2964 18.1643C20.4129 18.225 20.4826 18.3412 20.4826 18.5018C20.4826 18.6624 20.4129 18.7917 20.2964 18.862Z" fill="white"/>
<path d="M28.4123 19.0937C28.5874 19.2744 28.6813 19.5025 28.6813 19.8887C28.6813 20.696 28.1754 21.0728 27.2684 21.0728H25.5165V20.2681H27.2613C27.4319 20.2681 27.5529 20.2456 27.6287 20.1752C27.6906 20.1172 27.735 20.0329 27.735 19.9305C27.735 19.8212 27.6869 19.7344 27.6252 19.6823C27.5564 19.6251 27.4615 19.599 27.3049 19.599C27.2498 19.5972 27.1939 19.5956 27.1373 19.5941C26.3304 19.5722 25.4104 19.5473 25.4104 18.4376C25.4104 17.8933 25.7534 17.3204 26.6963 17.3204H28.4995V18.1191H26.8496C26.686 18.1191 26.5797 18.1252 26.4892 18.1869C26.3907 18.2476 26.3542 18.3378 26.3542 18.4568C26.3542 18.5984 26.4378 18.6947 26.551 18.7363C26.6458 18.7693 26.7478 18.7789 26.901 18.7789L27.3852 18.7919C27.8734 18.8038 28.2086 18.888 28.4123 19.0937Z" fill="white"/>
<path d="M32.0001 18.1188H30.3608C30.1972 18.1188 30.0884 18.125 29.9968 18.1866C29.902 18.2474 29.8654 18.3376 29.8654 18.4566C29.8654 18.5982 29.9455 18.6945 30.0621 18.7361C30.157 18.769 30.2589 18.7787 30.4087 18.7787L30.8962 18.7917C31.3881 18.8038 31.7164 18.8881 31.9166 19.0937C31.9474 19.1178 31.9678 19.1445 31.9885 19.1716L31.9941 19.1789L31.9977 19.1835L32.0001 19.1866V20.5928C31.7816 20.9113 31.3558 21.0728 30.7795 21.0728H29.0426V20.2681H30.7725C30.9441 20.2681 31.0642 20.2456 31.1365 20.1752C31.1991 20.1172 31.2428 20.0329 31.2428 19.9305C31.2428 19.8212 31.1991 19.7344 31.1329 19.6823C31.0677 19.6251 30.9727 19.599 30.8161 19.599C30.7608 19.5972 30.7047 19.5957 30.648 19.5941C29.8382 19.5723 28.9179 19.5474 28.9179 18.4376C28.9179 17.8933 29.2646 17.3204 30.2084 17.3204H31.9999L32.0001 18.1188Z" fill="white"/>
<path d="M21.9758 17.3203H24.9777V18.0963H22.8715V18.7785H24.9262V19.5442H22.8715V20.2908L24.9777 20.2942V21.0728H21.9758V17.3203Z" fill="white"/>
<path fill-rule="evenodd" clip-rule="evenodd" d="M2.88569 12.996L2.27009 11.5005L1.658 12.996H2.88569ZM16.4474 12.4005C16.3238 12.4753 16.1777 12.4778 16.0025 12.4778H14.9099V11.6445H16.0174C16.1741 11.6445 16.3377 11.6516 16.4439 11.7122C16.5606 11.7669 16.6328 11.8832 16.6328 12.0439C16.6328 12.2078 16.5641 12.3398 16.4474 12.4005ZM24.2422 12.996L23.6198 11.5005L23.0008 12.996H24.2422ZM9.7123 14.6148H8.79025L8.78685 11.6766L7.48265 14.6148H6.69294L5.38534 11.674V14.6148H3.556L3.2104 13.7781H1.3377L0.988587 14.6148H0.0117188L1.62235 10.8633H2.95867L4.48838 14.4152V10.8633H5.95635L7.13342 13.4083L8.21471 10.8633H9.71219V14.6148H9.7123ZM13.3872 14.6148H10.3826V10.8633H13.3872V11.6445H11.2821V12.3207H13.3367V13.0897H11.2821V13.8389H13.3872V14.6148ZM17.6236 11.8736C17.6236 12.4718 17.2232 12.7808 16.9898 12.8736C17.1866 12.9483 17.3547 13.0802 17.4347 13.1895C17.5617 13.3761 17.5837 13.5428 17.5837 13.8779V14.6148H16.6765L16.6731 14.1417C16.6731 13.916 16.6947 13.5913 16.5311 13.4109C16.3997 13.2789 16.1993 13.2503 15.8755 13.2503H14.91V14.6148H14.0107V10.8633H16.0794C16.539 10.8633 16.8777 10.8754 17.1685 11.043C17.453 11.2106 17.6236 11.4552 17.6236 11.8736ZM19.063 14.6148H18.1452V10.8633H19.063V14.6148ZM29.7099 14.6148H28.4353L26.7305 11.7991V14.6148H24.8988L24.5487 13.7781H22.6803L22.3408 14.6148H21.2883C20.8511 14.6148 20.2976 14.5184 19.9841 14.1999C19.668 13.8814 19.5036 13.4499 19.5036 12.7677C19.5036 12.2113 19.6019 11.7027 19.9884 11.3007C20.2792 11.0013 20.7346 10.8633 21.3544 10.8633H22.2251V11.6671H21.3726C21.0444 11.6671 20.8591 11.7158 20.6805 11.8894C20.5272 12.0473 20.422 12.346 20.422 12.7392C20.422 13.1411 20.5021 13.4309 20.6693 13.6202C20.8078 13.7687 21.0594 13.8137 21.2961 13.8137H21.7001L22.9677 10.8634H24.3154L25.8382 14.4118V10.8634H27.2076L28.7886 13.4762V10.8634H29.7099V14.6148Z" fill="white"/>
</svg>
