<svg width="22" height="22" viewBox="0 0 22 22" fill="none" xmlns="http://www.w3.org/2000/svg">
<path d="M6 0C6.55228 0 7 0.447715 7 1V2H15V1C15 0.447715 15.4477 0 16 0C16.5523 0 17 0.447715 17 1V2H19C20.6569 2 22 3.34315 22 5V19C22 20.6569 20.6569 22 19 22H3C1.34315 22 0 20.6569 0 19V5C0 3.34315 1.34315 2 3 2H5V1C5 0.447715 5.44772 0 6 0ZM5 4H3C2.44772 4 2 4.44772 2 5V8H20V5C20 4.44772 19.5523 4 19 4H17V5C17 5.55228 16.5523 6 16 6C15.4477 6 15 5.55228 15 5V4H7V5C7 5.55228 6.55228 6 6 6C5.44772 6 5 5.55228 5 5V4ZM20 10H2V19C2 19.5523 2.44772 20 3 20H19C19.5523 20 20 19.5523 20 19V10Z" fill="#7D8688"/>
</svg>
