<svg width="32" height="32" viewBox="0 0 32 32" fill="none" xmlns="http://www.w3.org/2000/svg">
<path d="M20.3248 8.22266H11.6719V23.7419H20.3248V8.22266Z" fill="#007AD0"/>
<path d="M12.2232 15.9831C12.2218 14.4885 12.5612 13.0131 13.2156 11.6688C13.87 10.3244 14.8222 9.14622 16.0003 8.22345C14.5414 7.079 12.7894 6.36728 10.9444 6.16965C9.09946 5.97201 7.236 6.29643 5.56704 7.10583C3.89808 7.91522 2.49096 9.17693 1.50651 10.7467C0.522063 12.3166 0 14.1311 0 15.9831C0 17.835 0.522063 19.6496 1.50651 21.2194C2.49096 22.7892 3.89808 24.0509 5.56704 24.8603C7.236 25.6697 9.09946 25.9941 10.9444 25.7965C12.7894 25.5989 14.5414 24.8872 16.0003 23.7427C14.8222 22.8199 13.87 21.6418 13.2156 20.2974C12.5612 18.953 12.2218 17.4777 12.2232 15.9831Z" fill="#0066BA"/>
<path d="M31.0579 22.0987V21.7803H31.1863V21.7155H30.8594V21.7803H30.9878V22.0987H31.0579ZM31.6926 22.0987V21.7148H31.5924L31.4771 21.9789L31.3618 21.7148H31.2616V22.0987H31.3323V21.8092L31.4404 22.0588H31.5138L31.6219 21.8085V22.0987H31.6926Z" fill="#00A2E5"/>
<path d="M31.9997 15.9831C31.9998 17.835 31.4778 19.6496 30.4934 21.2194C29.509 22.7892 28.1019 24.0509 26.433 24.8603C24.7641 25.6697 22.9007 25.9941 21.0557 25.7965C19.2108 25.5989 17.4588 24.8872 16 23.7427C17.177 22.819 18.1285 21.6407 18.7828 20.2965C19.4371 18.9523 19.777 17.4775 19.777 15.9831C19.777 14.4887 19.4371 13.0138 18.7828 11.6697C18.1285 10.3255 17.177 9.14715 16 8.22345C17.4588 7.079 19.2108 6.36728 21.0557 6.16965C22.9007 5.97202 24.7641 6.29644 26.433 7.10584C28.1019 7.91525 29.509 9.17696 30.4934 10.7468C31.4778 12.3166 31.9998 14.1312 31.9997 15.9831Z" fill="#00A2E5"/>
</svg>
