<svg width="24" height="24" viewBox="0 0 24 24" fill="none" xmlns="http://www.w3.org/2000/svg">
<g clip-path="url(#clip0_23_166)">
<path d="M3 10.5C3 6.35786 6.35786 3 10.5 3C14.6421 3 18 6.35786 18 10.5C18 14.6421 14.6421 18 10.5 18H3V10.5ZM10.5 1C5.25329 1 1 5.25329 1 10.5V19C1 19.5523 1.44772 20 2 20H8.86528C10.1219 22.3773 12.6205 24 15.5 24H22C22.5523 24 23 23.5523 23 23V16.5C23 14.0452 21.82 11.8666 20 10.4996C19.9998 5.25307 15.7466 1 10.5 1ZM19.6859 12.9319C20.506 13.893 21 15.139 21 16.5V22H15.5C13.78 22 12.2431 21.2104 11.234 19.9721C15.3132 19.6604 18.6718 16.7724 19.6859 12.9319Z" fill="#7D8688"/>
</g>
<defs>
<clipPath id="clip0_23_166">
<rect width="24" height="24" fill="white"/>
</clipPath>
</defs>
</svg>
