<svg width="24" height="24" fill="none" xmlns="http://www.w3.org/2000/svg"><g clip-path="url(#clip0_23_166)"><path d="M3 10.5a7.5 7.5 0 117.5 7.5H3v-7.5zM10.5 1A9.5 9.5 0 001 10.5V19a1 1 0 001 1h6.865a7.499 7.499 0 006.635 4H22a1 1 0 001-1v-6.5a7.49 7.49 0 00-3-6A9.5 9.5 0 0010.5 1zm9.186 11.932A5.478 5.478 0 0121 16.5V22h-5.5a5.49 5.49 0 01-4.266-2.028 9.507 9.507 0 008.452-7.04z" fill="#7D8688"/></g><defs><clipPath id="clip0_23_166"><path fill="#fff" d="M0 0h24v24H0z"/></clipPath></defs></svg>