<svg class="icon" viewBox="0 0 24 24" fill="none" fill="#7D8688">
<path d="M12 3C7.02944 3 3 7.02944 3 12C3 16.9706 7.02944 21 12 21C16.9706 21 21 16.9706 21 12C21 7.02944 16.9706 3 12 3ZM1 12C1 5.92487 5.92487 1 12 1C18.0751 1 23 5.92487 23 12C23 18.0751 18.0751 23 12 23C5.92487 23 1 18.0751 1 12ZM17.6569 6.34314C17.9397 6.626 18.0268 7.05022 17.8782 7.42164L15.0498 14.4927C14.9482 14.7468 14.7468 14.9481 14.4927 15.0498L7.42165 17.8782C7.05023 18.0268 6.62601 17.9397 6.34315 17.6568C6.06029 17.374 5.97321 16.9498 6.12178 16.5783L8.95021 9.50728C9.05185 9.25318 9.25319 9.05184 9.50729 8.9502L16.5784 6.12177C16.9498 5.9732 17.374 6.06028 17.6569 6.34314ZM10.648 10.648L8.84531 15.1547L13.352 13.352L15.1547 8.8453L10.648 10.648ZM11.2929 12.7071C11.6834 13.0976 12.3166 13.0976 12.7071 12.7071C13.0976 12.3166 13.0976 11.6834 12.7071 11.2929C12.3166 10.9024 11.6834 10.9024 11.2929 11.2929C10.9024 11.6834 10.9024 12.3166 11.2929 12.7071Z" />
</svg>
