<svg class="icon" viewBox="0 0 24 24" fill="#000F13"><path d="M2.574 12.707a18.68 18.68 0 002.03 2.61C6.397 17.226 8.9 19 12 19c3.1 0 5.605-1.774 7.395-3.684A18.684 18.684 0 0021.86 12a18.681 18.681 0 00-2.464-3.316C17.605 6.774 15.101 5 12 5 8.9 5 6.396 6.774 4.605 8.684A18.678 18.678 0 002.14 12c.109.189.254.43.433.707zm21.32-1.155L23 12l.894.448-.002.003-.003.007-.011.022a10.615 10.615 0 01-.192.354 20.672 20.672 0 01-2.831 3.85C18.895 18.774 15.899 21 12 21c-3.9 0-6.896-2.226-8.855-4.316a20.67 20.67 0 01-2.831-3.85 12.375 12.375 0 01-.192-.354l-.011-.022-.003-.007-.002-.002v-.001L1 12l-.894-.448.002-.003.003-.007.011-.022a8.267 8.267 0 01.192-.354 20.674 20.674 0 012.831-3.85C5.105 5.226 8.1 3 12 3c3.9 0 6.895 2.226 8.855 4.316a20.675 20.675 0 012.831 3.85 11.81 11.81 0 01.192.354l.011.022.003.007.002.002v.001zM23 12l.894-.447a1 1 0 010 .894L23 12zM.106 11.553L1 12l-.894.447a1 1 0 010-.894zM10 12a2 2 0 114 0 2 2 0 01-4 0zm2-4a4 4 0 100 8 4 4 0 000-8z"/></svg>