<svg class="icon" viewBox="0 0 40 40" fill="none" fill="#000F13">
<rect width="40" height="40" rx="4" fill-opacity="0.2"/>
<path d="M29 14.8186C29 13.3212 27.6788 12 26.1813 12H14.8186C13.3212 12 12 13.3212 12 14.8186V26.1813C12 27.6787 13.3212 29 14.8186 29H17.329C19.1046 29 20.544 27.5606 20.544 25.785V23.6269C20.544 23.0432 20.0708 22.5699 19.487 22.5699C18.9033 22.5699 18.4301 22.0967 18.4301 21.513V20.8083C18.4301 20.2245 18.9033 19.7513 19.487 19.7513C20.0708 19.7513 20.544 19.2781 20.544 18.6943V18.6062C20.544 16.6684 21.9534 14.9948 23.715 14.9948H24.5959C25.3742 14.9948 26.0052 15.6258 26.0052 16.4041C26.0052 17.1825 25.3742 17.8135 24.5959 17.8135H23.715C23.4508 17.8135 23.1865 18.0777 23.1865 18.6062C23.1865 19.2386 23.6992 19.7513 24.3316 19.7513H24.5959C25.3742 19.7513 26.0052 20.3823 26.0052 21.1606C26.0052 21.939 25.3742 22.5699 24.5959 22.5699C23.8175 22.5699 23.1865 23.2009 23.1865 23.9793V26.0052C23.1865 27.6592 24.5274 29 26.1813 29C27.6788 29 29 27.6787 29 26.1813V14.8186Z" fill="white"/>
</svg>
