<svg width="20" height="20" viewBox="0 0 20 20" fill="none" xmlns="http://www.w3.org/2000/svg">
<path d="M10.6272 0.701087C10.4618 0.511982 10.2198 0.407635 9.96869 0.417096C9.71762 0.426556 9.48422 0.548791 9.33345 0.749778L9.3334 0.749834L9.33328 0.750007L9.33236 0.751231L9.32818 0.756778L9.31071 0.779906C9.29509 0.800532 9.27166 0.831379 9.24111 0.871332C9.17998 0.951254 9.0904 1.06751 8.97783 1.21121C8.75249 1.49888 8.43614 1.8951 8.07235 2.32909C7.33178 3.21257 6.44011 4.19726 5.72946 4.76578C3.5042 6.54599 2.08337 8.84966 2.08337 11.6665C2.08337 14.174 3.002 16.1732 4.48791 17.5402C5.96299 18.8973 7.94363 19.5832 10.0001 19.5832C14.08 19.5832 18.3334 16.8304 18.3334 11.6665C18.3334 9.24382 17.7818 7.45526 17.2108 6.25614C16.926 5.65819 16.638 5.21002 16.4148 4.90488C16.3031 4.75232 16.2076 4.63546 16.1367 4.55342C16.1013 4.5124 16.072 4.48006 16.0498 4.4563C16.0388 4.44441 16.0295 4.43467 16.0221 4.42706L16.0126 4.41723L16.0089 4.41351L16.0073 4.41195L16.0066 4.41124C16.0063 4.41091 16.006 4.41058 15.4167 4.99984L16.006 4.41058C15.8017 4.20636 15.5063 4.12244 15.2252 4.1888C14.9463 4.25466 14.7209 4.45922 14.6282 4.73016L14.6259 4.73646C14.6226 4.74527 14.616 4.76248 14.6057 4.78711C14.585 4.83642 14.5498 4.91505 14.497 5.01536C14.3912 5.21638 14.2166 5.5014 13.9507 5.81168C13.6195 6.19803 13.1417 6.62987 12.4645 6.98915C12.5068 6.71006 12.5388 6.40293 12.5515 6.07353C12.6098 4.55684 12.2557 2.56218 10.6272 0.701087ZM9.34963 3.39976C9.5854 3.11849 9.80168 2.85289 9.98774 2.62047C10.7505 3.83095 10.9234 5.03825 10.8861 6.00948C10.863 6.61005 10.7588 7.11884 10.6612 7.47479C10.6126 7.65213 10.5661 7.78962 10.5333 7.87934C10.5169 7.92414 10.504 7.95684 10.4961 7.97645L10.488 7.99585C10.4875 7.99696 10.4872 7.99763 10.4872 7.99785L10.4875 7.99697L10.4879 7.99617C10.3593 8.28699 10.4074 8.62571 10.612 8.86924C10.817 9.11317 11.1431 9.21889 11.4522 9.14162C13.306 8.67816 14.4925 7.74054 15.2161 6.89633C15.3164 6.77925 15.4077 6.66426 15.4904 6.55294C15.5607 6.67999 15.6332 6.81985 15.706 6.9727C16.1767 7.96109 16.6667 9.50586 16.6667 11.6665C16.6667 14.3745 15.1808 16.279 13.1604 17.2278C13.2704 16.9179 13.3334 16.5889 13.3334 16.2498C13.3334 14.8628 12.5057 13.8224 11.8131 13.1876C11.4561 12.8603 11.1025 12.6103 10.8393 12.4421C10.7069 12.3575 10.5951 12.2922 10.5144 12.247C10.4739 12.2244 10.4411 12.2067 10.4171 12.1941L10.3878 12.1788L10.3785 12.174L10.3751 12.1724L10.3738 12.1717L10.3732 12.1714C10.373 12.1713 10.3727 12.1711 10 12.9165L10.3727 12.1711L10 11.9848L9.62736 12.1711L10 12.9165C9.62736 12.1711 9.62711 12.1713 9.62685 12.1714L9.62628 12.1717L9.62495 12.1724L9.62162 12.174L9.61224 12.1788L9.583 12.1941C9.55901 12.2067 9.52616 12.2244 9.48571 12.247C9.40493 12.2922 9.2932 12.3575 9.16076 12.4421C8.89754 12.6103 8.54397 12.8603 8.18694 13.1876C7.49442 13.8224 6.66671 14.8628 6.66671 16.2498C6.66671 16.5638 6.71609 16.8665 6.80459 17.1523C6.37178 16.9218 5.97256 16.6414 5.61634 16.3136C4.49808 15.2848 3.75004 13.7424 3.75004 11.6665C3.75004 9.48335 4.82922 7.62035 6.77062 6.06723C7.62247 5.38575 8.60581 4.28711 9.34963 3.39976ZM10.4882 7.99541C10.4884 7.99507 10.4885 7.99472 11.25 8.33317L10.4885 7.99472L10.4882 7.99541ZM10.6869 14.4162C11.2444 14.9272 11.6667 15.5535 11.6667 16.2498C11.6667 16.6038 11.4813 17.0275 11.1295 17.3793C10.7777 17.7311 10.354 17.9165 10 17.9165C9.62875 17.9165 9.20467 17.7372 8.86389 17.404C8.52569 17.0733 8.33337 16.6537 8.33337 16.2498C8.33337 15.5535 8.75566 14.9272 9.31314 14.4162C9.55659 14.1931 9.80289 14.0136 10 13.8842C10.1972 14.0136 10.4435 14.1931 10.6869 14.4162Z" fill="#000F13"/>
</svg>
