<svg class="icon" viewBox="0 0 40 40" fill="none" fill="#000F13">
<rect width="40" height="40" rx="4" fill-opacity="0.2"/>
<path d="M20.3417 17.4417V19.1908C20.3417 20.4109 21.3308 21.4 22.5509 21.4C24.0896 21.4 25.0783 22.9874 23.834 23.8926C22.9004 24.5718 21.7436 24.9625 20.5 24.9625C17.4125 24.9625 14.9583 22.5083 14.9583 19.4208C14.9583 16.3333 17.4125 13.8792 20.5 13.8792C21.6875 13.8792 22.7958 14.275 23.7458 14.9083C23.9213 15.04 24.1701 15.006 24.3038 14.8321L26.1962 12.3721C26.329 12.1994 26.2951 11.9515 26.1208 11.8208C24.4583 10.6333 22.5583 10 20.5 10C15.275 10 11 14.275 11 19.5C11 24.725 15.275 29 20.5 29C25.725 29 30 24.725 30 19.5C30 18.4069 29.1139 17.5208 28.0208 17.5208H20.4208C20.3771 17.5208 20.3417 17.4854 20.3417 17.4417Z" fill="white"/>
</svg>
