<svg class="icon" viewBox="0 0 24 24" fill="#7D8688"><path d="M14.328 2.494a6.121 6.121 0 014.815 0 6.254 6.254 0 012.033 1.401 6.447 6.447 0 011.351 2.086 6.58 6.58 0 010 4.902 6.444 6.444 0 01-1.351 2.085l-8.458 8.728a1 1 0 01-1.436 0l-8.458-8.728A6.52 6.52 0 011 8.432a6.52 6.52 0 011.824-4.537 6.182 6.182 0 014.44-1.894c1.671 0 3.268.685 4.44 1.894l.296.306.296-.305a6.255 6.255 0 012.032-1.402zm5.412 2.793a4.254 4.254 0 00-1.383-.954 4.121 4.121 0 00-3.242 0c-.515.22-.986.544-1.383.954l-1.014 1.047a1 1 0 01-1.436 0l-1.015-1.047a4.182 4.182 0 00-3.003-1.286c-1.12 0-2.202.459-3.004 1.286A4.52 4.52 0 003 8.432a4.52 4.52 0 001.26 3.144L12 19.563l7.74-7.986c.397-.41.714-.9.931-1.44a4.58 4.58 0 000-3.411 4.447 4.447 0 00-.931-1.439z"/></svg>