<svg class="icon" viewBox="0 0 24 24" fill="none" fill="#7D8688">
<path d="M14.3284 2.4941C15.0906 2.16819 15.9088 2 16.7359 2C17.563 2 18.3811 2.16819 19.1434 2.4941C19.9055 2.81992 20.5958 3.29656 21.1758 3.89523C21.756 4.49371 22.2147 5.20261 22.5272 5.98065C22.8396 6.75864 23 7.59148 23 8.43187C23 9.27225 22.8396 10.1051 22.5272 10.8831C22.2148 11.6611 21.7561 12.3699 21.1759 12.9683C21.1759 12.9684 21.176 12.9683 21.1759 12.9683L12.7179 21.6959C12.5295 21.8903 12.2704 22 11.9997 22C11.7291 22 11.47 21.8903 11.2816 21.6959L2.82357 12.9683C1.65254 11.76 1 10.1276 1 8.43187C1 6.73612 1.65254 5.10375 2.82357 3.8954C3.99563 2.68599 5.59209 2.00053 7.26361 2.00053C8.93512 2.00053 10.5316 2.68599 11.7036 3.8954L11.9997 4.20093L12.2957 3.89557C12.2957 3.89551 12.2956 3.89562 12.2957 3.89557C12.8757 3.29682 13.5662 2.81995 14.3284 2.4941ZM19.7395 5.28709C19.3422 4.87692 18.8722 4.55328 18.3571 4.33307C17.8422 4.11289 17.2914 4 16.7359 4C16.1804 4 15.6296 4.11289 15.1146 4.33307C14.5996 4.55328 14.1295 4.87692 13.7322 5.28709L12.7179 6.33378C12.5295 6.52814 12.2704 6.63785 11.9997 6.63785C11.7291 6.63785 11.47 6.52814 11.2816 6.33378L10.2674 5.28726C9.46526 4.45953 8.38409 4.00053 7.26361 4.00053C6.14313 4.00053 5.06196 4.45953 4.25978 5.28726C3.45658 6.11606 3 7.24666 3 8.43187C3 9.61708 3.45658 10.7477 4.25978 11.5765L11.9997 19.5631L19.7397 11.5765C20.1373 11.1664 20.4544 10.6777 20.6712 10.1378C20.888 9.59786 21 9.01809 21 8.43187C21 7.84565 20.888 7.26587 20.6712 6.72592C20.4544 6.18601 20.1371 5.69713 19.7395 5.28709Z" />
</svg>
