<svg width="32" height="32" viewBox="0 0 32 32" fill="none" xmlns="http://www.w3.org/2000/svg">
<path d="M20.3248 8.23828H11.6719V23.7879H20.3248V8.23828Z" fill="#7375CF"/>
<path d="M12.2232 16.0141C12.2218 14.5165 12.5612 13.0383 13.2156 11.6913C13.87 10.3443 14.8222 9.16386 16.0003 8.23929C14.5414 7.0926 12.7894 6.3795 10.9444 6.18148C9.09946 5.98346 7.236 6.30851 5.56704 7.11949C3.89808 7.93046 2.49096 9.19463 1.50651 10.7675C0.522063 12.3404 0 14.1585 0 16.0141C0 17.8696 0.522063 19.6878 1.50651 21.2606C2.49096 22.8335 3.89808 24.0977 5.56704 24.9087C7.236 25.7197 9.09946 26.0447 10.9444 25.8467C12.7894 25.6487 14.5414 24.9356 16.0003 23.7889C14.8222 22.8643 13.87 21.6838 13.2156 20.3368C12.5612 18.9898 12.2218 17.5116 12.2232 16.0141Z" fill="#EB001B"/>
<path d="M31.0579 22.1416V21.8233H31.1863V21.7584H30.8594V21.8233H30.9878V22.1416H31.0579ZM31.6926 22.1416V21.7578H31.5924L31.4771 22.0218L31.3618 21.7578H31.2616V22.1416H31.3323V21.8521L31.4404 22.1017H31.5138L31.6219 21.8515V22.1416H31.6926Z" fill="#00A2E5"/>
<path d="M31.9997 16.0141C31.9998 17.8696 31.4778 19.6877 30.4934 21.2606C29.509 22.8335 28.1019 24.0977 26.433 24.9087C24.7641 25.7196 22.9007 26.0447 21.0557 25.8467C19.2108 25.6487 17.4588 24.9356 16 23.7889C17.177 22.8634 18.1285 21.6827 18.7828 20.3359C19.4371 18.9891 19.777 17.5114 19.777 16.0141C19.777 14.5168 19.4371 13.039 18.7828 11.6922C18.1285 10.3455 17.177 9.16479 16 8.23929C17.4588 7.0926 19.2108 6.3795 21.0557 6.18148C22.9007 5.98346 24.7641 6.30852 26.433 7.1195C28.1019 7.93048 29.509 9.19466 30.4934 10.7675C31.4778 12.3404 31.9998 14.1585 31.9997 16.0141Z" fill="#00A2E5"/>
</svg>
