<svg class="icon" viewBox="0 0 24 24" fill="none" fill="#7D8688">
<path d="M13 1C13 0.447715 12.5523 0 12 0C11.4477 0 11 0.447715 11 1V2.05493C6.50005 2.55237 3 6.36745 3 11V17C3 18.6569 4.34315 20 6 20H18C19.6569 20 21 18.6569 21 17V11C21 6.36745 17.5 2.55237 13 2.05493V1ZM12 4C15.866 4 19 7.13401 19 11V17C19 17.5523 18.5523 18 18 18H6C5.44772 18 5 17.5523 5 17V11C5 7.13401 8.13401 4 12 4ZM9 22C9 21.4477 9.44772 21 10 21H14C14.5523 21 15 21.4477 15 22C15 22.5523 14.5523 23 14 23H10C9.44772 23 9 22.5523 9 22Z" />
</svg>
