<svg class="icon" viewBox="0 0 20 20" fill="none" stroke="#000F13">
<path d="M18.175 3.28323C16.8916 6.48323 13.675 10.8332 10.9833 12.9916L9.34164 14.3082C9.13331 14.4582 8.92498 14.5916 8.69164 14.6832C8.69164 14.5332 8.68331 14.3666 8.65831 14.2082C8.56664 13.5082 8.24998 12.8582 7.69164 12.2999C7.12498 11.7332 6.43331 11.3999 5.72498 11.3082C5.55831 11.2999 5.39164 11.2832 5.22498 11.2999C5.31664 11.0416 5.45831 10.7999 5.63331 10.5999L6.93331 8.95823C9.08331 6.26656 13.45 3.03323 16.6416 1.75823C17.1333 1.5749 17.6083 1.70823 17.9083 2.01656C18.225 2.3249 18.375 2.7999 18.175 3.28323Z"  stroke-width="1.5" stroke-linecap="round" stroke-linejoin="round"/>
<path d="M8.69161 14.6832C8.69161 15.5998 8.34161 16.4748 7.68328 17.1415C7.17494 17.6498 6.48328 17.9998 5.65828 18.1082L3.60828 18.3332C2.49161 18.4582 1.53328 17.5082 1.66661 16.3748L1.89161 14.3248C2.09161 12.4998 3.61661 11.3332 5.23328 11.2998C5.39994 11.2915 5.57494 11.2998 5.73328 11.3082C6.44161 11.3998 7.13328 11.7248 7.69994 12.2998C8.25828 12.8582 8.57494 13.5082 8.66661 14.2082C8.67494 14.3665 8.69161 14.5248 8.69161 14.6832Z"  stroke-width="1.5" stroke-linecap="round" stroke-linejoin="round"/>
<path d="M11.8667 12.0584C11.8667 9.88337 10.1 8.1167 7.92505 8.1167"  stroke-width="1.5" stroke-linecap="round" stroke-linejoin="round"/>
</svg>
