<svg class="icon" viewBox="0 0 20 20" fill="none" stroke="#000F13"><path d="M18.175 3.283c-1.283 3.2-4.5 7.55-7.192 9.709l-1.641 1.316c-.209.15-.417.284-.65.375 0-.15-.009-.316-.034-.475-.091-.7-.408-1.35-.966-1.908a3.403 3.403 0 00-1.967-.992c-.167-.008-.333-.025-.5-.008.092-.258.233-.5.408-.7l1.3-1.642c2.15-2.691 6.517-5.925 9.709-7.2.491-.183.966-.05 1.266.259.317.308.467.783.267 1.266z" stroke-width="1.5" stroke-linecap="round" stroke-linejoin="round"/><path d="M8.692 14.683c0 .917-.35 1.792-1.009 2.459-.508.508-1.2.858-2.025.966l-2.05.225a1.762 1.762 0 01-1.941-1.958l.225-2.05c.2-1.825 1.725-2.992 3.341-3.025.167-.009.342 0 .5.008.709.092 1.4.417 1.967.992.558.558.875 1.208.967 1.908.008.159.025.317.025.475zm3.175-2.625a3.944 3.944 0 00-3.942-3.941" stroke-width="1.5" stroke-linecap="round" stroke-linejoin="round"/></svg>