<svg width="24" height="24" fill="none" xmlns="http://www.w3.org/2000/svg"><path d="M9.24 4a.477.477 0 00-.439.665l2.118 4.941A1 1 0 0110 11H4a1 1 0 01-.894-.553L2.382 9H2v6h.382l.724-1.447A1 1 0 014 13h6a1 1 0 01.92 1.394l-2.106 4.912a.498.498 0 00.85.504l5.05-6.428A1 1 0 0115.5 13h5.424a1 1 0 000-2H15a1 1 0 01-.814-.419L9.628 4.2A.477.477 0 009.24 4zM6.963 5.453C6.263 3.818 7.462 2 9.24 2c.8 0 1.55.386 2.015 1.037L15.515 9h5.41a3 3 0 010 6h-4.939l-4.75 6.045A2.498 2.498 0 019.272 22c-1.794 0-3.003-1.834-2.296-3.482L8.483 15H4.618l-.724 1.447A1 1 0 013 17H1a1 1 0 01-1-1V8a1 1 0 011-1h2a1 1 0 01.894.553L4.618 9h3.865l-1.52-3.547z" fill="#7D8688"/></svg>