<svg class="icon" viewBox="0 0 22 22" fill="none" fill="#7D8688">
<path d="M11 2C10.5654 2 10.138 2.0308 9.71986 2.09035C9.58538 2.5785 9.4075 3.27861 9.22926 4.14011C9.05882 4.96392 8.8888 5.9317 8.75585 7H13.2441C13.1112 5.9317 12.9412 4.96392 12.7707 4.14011C12.5925 3.27861 12.4146 2.5785 12.2801 2.09035C11.862 2.0308 11.4346 2 11 2ZM7.27074 3.73489C7.34768 3.36303 7.42468 3.01904 7.4987 2.70646C5.51262 3.54596 3.89065 5.07805 2.93552 7H6.74127C6.8859 5.7707 7.07856 4.66374 7.27074 3.73489ZM6.56198 9H2.22302C2.07706 9.64322 2 10.3126 2 11C2 11.6874 2.07706 12.3568 2.22302 13H6.56198C6.52248 12.353 6.5 11.6843 6.5 11C6.5 10.3157 6.52248 9.64699 6.56198 9ZM6.74127 15H2.93552C3.89065 16.922 5.51262 18.454 7.4987 19.2935C7.42468 18.981 7.34768 18.637 7.27074 18.2651C7.07856 17.3363 6.8859 16.2293 6.74127 15ZM8.75585 15C8.8888 16.0683 9.05882 17.0361 9.22926 17.8599C9.4075 18.7214 9.58538 19.4215 9.71986 19.9097C10.138 19.9692 10.5654 20 11 20C11.4346 20 11.862 19.9692 12.2801 19.9097C12.4146 19.4215 12.5925 18.7214 12.7707 17.8599C12.9412 17.0361 13.1112 16.0683 13.2441 15H8.75585ZM13.4341 13C13.476 12.3536 13.5 11.6845 13.5 11C13.5 10.3155 13.476 9.64638 13.4341 9H8.56593C8.52402 9.64638 8.5 10.3155 8.5 11C8.5 11.6845 8.52402 12.3536 8.56593 13H13.4341ZM15.2587 15C15.1141 16.2293 14.9214 17.3363 14.7293 18.2651C14.6523 18.637 14.5753 18.981 14.5013 19.2935C16.4874 18.454 18.1094 16.922 19.0645 15H15.2587ZM19.777 13C19.9229 12.3568 20 11.6874 20 11C20 10.3126 19.9229 9.64322 19.777 9H15.438C15.4775 9.64699 15.5 10.3157 15.5 11C15.5 11.6843 15.4775 12.353 15.438 13H19.777ZM14.5013 2.70646C14.5753 3.01904 14.6523 3.36303 14.7293 3.73489C14.9214 4.66374 15.1141 5.7707 15.2587 7H19.0645C18.1094 5.07805 16.4874 3.54596 14.5013 2.70646ZM0 11C0 4.92487 4.92487 0 11 0C17.0751 0 22 4.92487 22 11C22 17.0751 17.0751 22 11 22C4.92487 22 0 17.0751 0 11Z" />
</svg>
