<svg width="24" height="24" viewBox="0 0 24 24" fill="none" xmlns="http://www.w3.org/2000/svg">
<path d="M9.23991 4C8.89748 4 8.6666 4.35014 8.80149 4.66489L10.9191 9.60608C11.0516 9.91504 11.0199 10.2699 10.8348 10.5505C10.6498 10.8311 10.3361 11 10 11H4C3.62123 11 3.27496 10.786 3.10557 10.4472L2.38197 9H2V15H2.38197L3.10557 13.5528C3.27496 13.214 3.62123 13 4 13H10C10.3361 13 10.6498 13.1689 10.8348 13.4495C11.0199 13.7301 11.0516 14.085 10.9191 14.3939L8.81409 19.3057C8.67323 19.6344 8.91431 20 9.27188 20C9.42472 20 9.5691 19.9298 9.66353 19.8096L14.7137 13.3822C14.9033 13.1409 15.1931 13 15.5 13H20.9245C21.1897 13 21.444 12.8946 21.6316 12.7071C22.0221 12.3166 22.0221 11.6834 21.6316 11.2929C21.444 11.1054 21.1897 11 20.9245 11H15C14.677 11 14.374 10.844 14.1863 10.5812L9.62806 4.19975C9.53852 4.07439 9.39396 4 9.23991 4ZM6.9632 5.45273C6.26271 3.81824 7.46164 2 9.23991 2C10.0399 2 10.7906 2.38633 11.2555 3.03727L15.5146 9H20.9245C21.7201 9 22.4832 9.31607 23.0458 9.87868C24.2174 11.0503 24.2174 12.9497 23.0458 14.1213C22.4832 14.6839 21.7201 15 20.9245 15H15.986L11.2362 21.0453C10.7626 21.6481 10.0384 22 9.27188 22C7.47848 22 6.26934 20.1663 6.97579 18.5179L8.48346 15H4.61803L3.89443 16.4472C3.72504 16.786 3.37877 17 3 17H1C0.447715 17 0 16.5523 0 16V8C0 7.44772 0.447715 7 1 7H3C3.37877 7 3.72504 7.214 3.89443 7.55279L4.61803 9H8.48346L6.9632 5.45273Z" fill="#7D8688"/>
</svg>
