<svg class="icon" viewBox="0 0 24 24" fill="none" fill="#7D8688">
<path d="M15.5944 6.8076C13.168 4.38119 9.23401 4.38119 6.8076 6.8076C4.38119 9.23401 4.38119 13.168 6.8076 15.5944C9.23401 18.0208 13.168 18.0208 15.5944 15.5944C18.0208 13.168 18.0208 9.23401 15.5944 6.8076ZM5.39338 5.39338C8.60084 2.18593 13.8012 2.18593 17.0086 5.39338C19.9767 8.36148 20.1982 13.0361 17.6731 16.2589L21.799 20.3848C22.1895 20.7753 22.1895 21.4085 21.799 21.799C21.4084 22.1895 20.7753 22.1895 20.3848 21.799L16.2589 17.6731C13.0361 20.1982 8.36148 19.9767 5.39338 17.0086C2.18593 13.8012 2.18593 8.60084 5.39338 5.39338Z" />
</svg>
