<svg class="icon" viewBox="0 0 24 24" fill="#7D8688"><g clip-path="url(#clip0_23_178)"><path d="M2.072 1.629A1 1 0 013 1h18a1 1 0 01.928.629l2 5a1 1 0 01.017.697A4.659 4.659 0 0122 11.825V22a1 1 0 01-1 1H3a1 1 0 01-1-1V11.825A4.66 4.66 0 01.055 7.326a1 1 0 01.017-.697l2-5zM2.006 8a2.665 2.665 0 105.33 0h-5.33zm7.33 0a2.665 2.665 0 105.329 0h-5.33zm7.329 0a2.665 2.665 0 105.329 0h-5.33zM4 12.617V21h16v-8.383a4.656 4.656 0 01-4.335-1.73A4.656 4.656 0 0112 12.664a4.656 4.656 0 01-3.665-1.779A4.656 4.656 0 014 12.616zM3.677 3l-1.2 3h19.046l-1.2-3H3.677z"/></g><defs><clipPath id="clip0_23_178"><path fill="#fff" d="M0 0h24v24H0z"/></clipPath></defs></svg>