<svg class="icon" viewBox="0 0 24 24" fill="none" fill="#7D8688">
<g clip-path="url(#clip0_23_178)">
<path d="M2.07153 1.62861C2.22339 1.24895 2.5911 1 3 1H21C21.4089 1 21.7766 1.24895 21.9285 1.62861L23.9285 6.62861C24.0187 6.85422 24.0227 7.10185 23.9453 7.32617C23.9772 7.54619 23.9936 7.77118 23.9936 8.00001C23.9936 9.58274 23.2054 10.9814 22 11.8247V21.9999C22 22.5522 21.5523 22.9999 21 22.9999H3C2.44772 22.9999 2 22.5522 2 21.9999V11.8247C0.794632 10.9814 0.00635242 9.58274 0.00635242 8.00001C0.00635242 7.77117 0.0228323 7.54617 0.05467 7.32614C-0.0227044 7.10183 -0.0187129 6.85421 0.071528 6.62861L2.07153 1.62861ZM2.00635 8.00001C2.00635 8.00002 2.00635 8.00001 2.00635 8.00001C2.00635 9.4716 3.19931 10.6646 4.6709 10.6646C6.14249 10.6646 7.33544 9.4716 7.33544 8.00001C7.33544 8.00001 7.33544 8.00002 7.33544 8.00001H2.00635ZM9.33545 8.00001C9.33545 8.00002 9.33545 8.00001 9.33545 8.00001C9.33545 9.4716 10.5284 10.6646 12 10.6646C13.4716 10.6646 14.6645 9.4716 14.6645 8.00001C14.6645 8.00001 14.6645 8.00002 14.6645 8.00001H9.33545ZM16.6646 8.00001C16.6646 9.4716 17.8575 10.6646 19.3291 10.6646C20.8007 10.6646 21.9936 9.4716 21.9936 8.00001H16.6646ZM4 12.6167V20.9999H20V12.6167C19.7809 12.6482 19.5569 12.6646 19.3291 12.6646C17.8427 12.6646 16.5187 11.9693 15.6646 10.8863C14.8104 11.9693 13.4864 12.6646 12 12.6646C10.5136 12.6646 9.18963 11.9693 8.33545 10.8863C7.48127 11.9693 6.15727 12.6646 4.6709 12.6646C4.44308 12.6646 4.21908 12.6482 4 12.6167ZM3.67704 3L2.47704 6H21.523L20.323 3H3.67704Z" />
</g>
<defs>
<clipPath id="clip0_23_178">
<rect width="24" height="24" fill="white"/>
</clipPath>
</defs>
</svg>
