<svg class="icon" viewBox="0 0 40 40" fill="#000F13"><rect width="40" height="40" rx="4" fill-opacity=".2"/><path d="M29.01 14.687c.202-.225-.03-.549-.322-.466-.318.09-.548-.38-.333-.632.086-.101.167-.205.243-.313.215-.303-.131-.61-.472-.465-.364.156-.744.28-1.155.383-.29.073-.588-.038-.813-.234A3.967 3.967 0 0023.6 12c-2.2 0-4 1.8-4 4 0 .435-.374.87-.805.81a11.806 11.806 0 01-5.927-2.64c-.752-.63-1.968-.45-1.968.53 0 .948.32 1.804.87 2.475.23.282.013.724-.326.592-.264-.102-.537.094-.491.373.208 1.252 1.014 2.349 2.1 2.91.255.131.234.45-.053.45-.338 0-.645.348-.48.644.198.358.452.683.748.964.719.681 1.02 2.188.07 2.465A8.317 8.317 0 0111 25.9c-.177 0-.278.312-.12.392 1.592.813 3.385 1.308 5.32 1.308 7.4 0 11.4-6.1 11.4-11.4v-.012c0-.293.186-.55.44-.698a4.14 4.14 0 00.97-.803z" fill="#FAFEFF"/></svg>