<svg class="icon" viewBox="0 0 40 40" fill="none" fill="#000F13">
<rect width="40" height="40" rx="4" fill-opacity="0.2"/>
<path d="M29.0091 14.6867C29.2118 14.4624 28.9791 14.138 28.6882 14.2206C28.3701 14.311 28.1403 13.8403 28.3549 13.5887C28.4407 13.488 28.522 13.3837 28.5981 13.2761C28.8125 12.9729 28.467 12.6651 28.1256 12.8111C27.7616 12.9667 27.3824 13.0917 26.9711 13.1945C26.6814 13.2669 26.3834 13.1557 26.158 12.9598C25.4688 12.3608 24.5344 12 23.6 12C21.4 12 19.6 13.8 19.6 16C19.6 16.4354 19.2261 16.8697 18.7949 16.8094C16.5719 16.4983 14.5207 15.5537 12.8676 14.1697C12.1155 13.54 10.9 13.7191 10.9 14.7C10.9 15.6476 11.2207 16.5036 11.7691 17.175C11.9993 17.4568 11.7833 17.8989 11.4441 17.7671C11.1805 17.6648 10.9066 17.8608 10.953 18.1397C11.1614 19.3923 11.9666 20.4887 13.0524 21.0495C13.3076 21.1813 13.2872 21.5 13 21.5C12.6616 21.5 12.3548 21.848 12.5193 22.1437C12.7184 22.5016 12.9715 22.8272 13.2681 23.1084C13.9866 23.7894 14.2882 25.2961 13.3379 25.5734C12.6011 25.7885 11.8191 25.9 11 25.9C10.8235 25.9 10.7221 26.2121 10.8793 26.2923C12.4716 27.1046 14.265 27.6 16.2 27.6C23.6 27.6 27.6 21.5 27.6 16.2V16.1883C27.6 15.8946 27.7862 15.6375 28.0403 15.4902C28.3921 15.2862 28.7183 15.0085 29.0091 14.6867Z" fill="#FAFEFF"/>
</svg>
