<svg class="icon" viewBox="0 0 40 40" fill="none" fill="#000F13">
<rect width="40" height="40" rx="4" fill-opacity="0.2"/>
<path d="M30.7864 24.6644C30.7864 24.5283 30.664 24.4225 30.5944 24.3055C30.1903 23.6257 29.4141 22.8023 28.4071 21.9041C28.0236 21.5932 27.7741 21.3257 27.5961 21.132C27.4676 20.9921 27.3305 20.855 27.2488 20.6835C27.1311 20.4366 27.1476 20.2168 27.2174 19.9452C27.3089 19.6781 27.675 19.2329 28.3155 18.4315C28.5884 18.0996 28.7596 17.8667 28.9428 17.6589C29.0684 17.5165 29.1981 17.3763 29.3128 17.2249C30.4719 15.6961 31.0541 14.6557 30.996 14.1037C30.9873 14.0203 30.938 13.9489 30.8779 13.8904C30.6797 13.6976 30.377 13.629 30.1011 13.6484C30.0933 13.6489 30.0854 13.6496 30.0775 13.6503C29.8764 13.6684 29.6769 13.7123 29.475 13.7123H26.3023C26.2108 13.7123 26.2108 13.7123 26.0278 13.7123C25.9362 13.7123 25.8447 13.7123 25.8447 13.7123H25.7532C25.6945 13.7123 25.6382 13.7352 25.5961 13.7761L25.5702 13.8014C25.4703 13.8986 25.4542 14.0466 25.403 14.1763C25.0506 15.068 24.6241 15.8206 24.1975 16.6507C23.923 17.0959 23.6485 17.5411 23.3739 17.8973C23.0994 18.2534 22.9164 18.5205 22.7333 18.6986C22.5648 18.8627 22.3962 18.9511 22.2991 19.1033C22.2824 19.1294 22.2648 19.1553 22.2406 19.1746C22.2088 19.1999 22.1719 19.2234 22.1368 19.2407C22.0562 19.2805 21.9052 19.2639 21.84 19.2019C21.8082 19.1716 21.8005 19.1265 21.7689 19.0959C21.6939 19.0228 21.6188 18.9498 21.5437 18.8767C21.5343 18.8675 21.5258 18.8574 21.5182 18.8465C21.3502 18.6069 21.3607 18.2789 21.3607 17.9863C21.3607 17.8973 21.3607 17.6301 21.3607 17.4521C21.3607 17.1849 21.3607 17.0068 21.3607 16.9178C21.3607 16.6507 21.3607 16.2945 21.3607 15.9384C21.3607 15.5822 21.3607 15.3151 21.3607 15.137C21.3607 14.9589 21.3607 14.6918 21.3607 14.5137C21.3607 14.2466 21.3607 14.0685 21.3607 13.9794C21.3607 13.7435 21.1738 13.5305 21.0047 13.3659C21.0013 13.3627 20.998 13.3594 20.9946 13.3562C20.8026 13.1693 20.4889 13.1482 20.2244 13.1055C19.8577 13.0463 19.4433 13 18.9814 13C17.5172 13 16.5106 13.089 16.1445 13.2671C16.0327 13.3215 15.9209 13.3759 15.83 13.4506C15.7144 13.5455 15.5113 13.7062 15.5361 13.8537C15.5507 13.941 15.6395 13.8979 15.7255 13.9187C16.1221 14.0147 16.4368 14.1833 16.6021 14.4247C16.6627 14.5426 16.7447 14.653 16.7793 14.781C16.8043 14.8735 16.827 14.9921 16.8766 15.137C16.9681 15.4041 16.9681 15.6712 16.9681 16.0274C16.9681 16.5616 16.9681 17.0959 16.9681 17.4521C16.9681 17.8973 16.8766 18.1644 16.8766 18.4315C16.8766 18.667 16.8055 18.8333 16.7259 18.9304C16.7058 18.955 16.686 18.9801 16.6723 19.0088C16.6456 19.0652 16.6279 19.1109 16.6118 19.146C16.5788 19.2179 16.4981 19.3219 16.4191 19.3219C16.3275 19.3219 16.236 19.411 16.053 19.411C16.0284 19.411 15.9971 19.4045 15.9627 19.3933C15.7603 19.3275 15.5789 19.1937 15.426 19.0457C15.2704 18.8951 15.1452 18.7142 15.0164 18.5402C14.9044 18.3889 14.7924 18.2043 14.6803 17.9863C14.5299 17.6936 14.3178 17.401 14.1453 17.0095C14.0676 16.833 13.9955 16.6536 13.9073 16.482L13.8567 16.3836C13.7652 16.2055 13.5822 15.8493 13.3992 15.4041C13.2162 14.9589 13.0331 14.6027 12.8501 14.1575C12.7695 14.0007 12.6889 13.9129 12.6083 13.8334C12.5874 13.8127 12.5592 13.8014 12.5298 13.8014C12.5005 13.8014 12.4725 13.7897 12.4489 13.7722C12.4139 13.7462 12.3575 13.7123 12.301 13.7123C12.2095 13.7123 12.118 13.6233 12.0265 13.6233H8.73209C8.36605 13.6233 8.18303 13.7123 8.09152 13.8014C8.03301 13.8583 8 13.9365 8 14.0181C8 14.0345 8 14.0515 8 14.0685C8 14.1575 8.00001 14.2466 8.09152 14.4247C8.54907 15.4931 9.09814 16.5616 9.64721 17.6301C10.1963 18.6096 10.7454 19.5 11.1114 20.1233C11.569 20.7466 11.935 21.3699 12.3926 21.9041C12.6132 22.1617 12.7912 22.3779 12.9268 22.5527C13.134 22.82 13.3398 23.0929 13.5822 23.3288L13.8567 23.5959C14.0398 23.774 14.3143 24.0411 14.6803 24.3082C15.0464 24.5753 15.5039 24.8425 15.9615 25.1096C16.4191 25.3767 16.9681 25.5548 17.5172 25.7329C18.0334 25.8764 18.4902 25.9621 18.9355 25.9433C19.1498 25.9343 19.3637 25.911 19.5781 25.911H20.6286C20.9031 25.911 21.0862 25.8219 21.2692 25.6438C21.3277 25.5869 21.3686 25.5091 21.4233 25.4486C21.4394 25.4309 21.4522 25.41 21.4522 25.3767C21.4522 25.2877 21.4522 25.1986 21.4522 25.0206C21.4522 24.6644 21.4522 24.3973 21.5437 24.1301C21.6352 23.863 21.6352 23.6849 21.7267 23.5069C21.8182 23.3288 21.9097 23.2397 22.0013 23.1507C22.0543 23.0991 22.1073 23.0475 22.1425 23.0133C22.1693 22.9872 22.2052 22.9726 22.2427 22.9726C22.2645 22.9726 22.2858 22.9672 22.3063 22.9597C22.4351 22.9128 22.6007 22.9436 22.7478 23.0255C22.8702 23.0936 22.9772 23.1869 23.0876 23.2731C23.3016 23.4404 23.5037 23.6517 23.6485 23.863C23.8315 24.1301 24.106 24.3973 24.4721 24.7534C24.8381 25.1096 25.1127 25.3767 25.2957 25.4658L25.5702 25.6438C25.7532 25.7329 25.9363 25.8219 26.2108 25.911C26.4853 26 26.6683 26 26.8514 26L29.9628 25.911C30.2373 25.911 30.5118 25.8219 30.6948 25.7329C30.8779 25.6438 30.9694 25.5548 30.9694 25.3767C30.9694 25.149 30.8088 24.9496 30.7882 24.7228C30.7864 24.7027 30.7864 24.6836 30.7864 24.6644Z" fill="white"/>
</svg>
